<svg  enable-background="new 0 0 512.013 512.013" height="512" viewBox="0 0 512.013 512.013" width="512" xmlns="http://www.w3.org/2000/svg"><g><path d="m10 426.003h30v66h-10c-5.522 0-10 4.477-10 10s4.478 10 10 10h80c5.522 0 10-4.477 10-10s-4.478-10-10-10h-10v-66h30c5.522 0 10-4.477 10-10s-4.478-10-10-10h-10v-250c0-5.523-4.478-10-10-10h-10v-30c0-5.523-4.478-10-10-10h-10v-96c0-5.523-4.478-10-10-10s-10 4.477-10 10v96h-10c-5.522 0-10 4.477-10 10v30h-10c-5.522 0-10 4.477-10 10v250h-10c-5.522 0-10 4.477-10 10s4.478 10 10 10zm90-20h-60v-20h10c5.522 0 10-4.477 10-10s-4.478-10-10-10h-10v-40h10c5.522 0 10-4.477 10-10s-4.478-10-10-10h-10v-40h60zm-20 86h-20v-66h20zm-20-366h20v20h-20zm40 40v80h-60v-40h10c5.522 0 10-4.477 10-10s-4.478-10-10-10h-10v-20z"/><path d="m322 180.003c-5.522 0-10 4.477-10 10 0 16.542 13.458 30 30 30s30-13.458 30-30c0-5.523-4.478-10-10-10s-10 4.477-10 10c0 5.514-4.486 10-10 10s-10-4.486-10-10c0-5.523-4.478-10-10-10z"/><path d="m292 150.003c0-5.514 4.486-10 10-10s10 4.486 10 10c0 5.523 4.478 10 10 10s10-4.477 10-10c0-16.542-13.458-30-30-30s-30 13.458-30 30c0 5.523 4.478 10 10 10s10-4.477 10-10z"/><path d="m362 160.003c5.522 0 10-4.477 10-10 0-5.514 4.486-10 10-10s10 4.486 10 10c0 5.523 4.478 10 10 10s10-4.477 10-10c0-16.542-13.458-30-30-30s-30 13.458-30 30c0 5.523 4.478 10 10 10z"/><path d="m171.197 436.758c0 13.287 5.204 25.805 14.639 35.233 3.957 3.972 16.337 11.949 27.79 17.053 5.416 2.401 10.269 6.058 14.034 10.573 12.007 14.445 39.631 18.217 57.18.668.939-.939 1.826-1.917 2.66-2.932 16.679 9.601 35.318 14.649 54.5 14.649 19.186 0 37.825-5.051 54.5-14.656.837 1.018 1.727 1.998 2.668 2.936 16.216 16.217 42.197 15.11 56.764-.207 4.686-4.965 10.411-9.209 16.566-12.278 11.257-5.623 22.786-13.729 24.85-15.792 19.547-19.533 19.557-50.953.002-70.495-.637-.637-1.299-1.244-1.966-1.844 5.838-13.142 6.067-31.683 5.791-40.416-1.681-53.794-35.951-105.253-85.646-127.448 15.372-13.852 26.662-31.858 32.322-51.799h16.668c16.542 0 30-13.458 30-30s-13.458-30-30-30h-16.674c-8.315-29.431-28.572-54.099-55.895-68.019.026-.659.05-1.319.05-1.981 0-27.57-22.43-50-50-50s-50 22.43-50 50c0 .662.024 1.322.049 1.981-27.329 13.923-47.585 38.595-55.888 68.019h-14.161c-16.542 0-30 13.458-30 30s13.458 30 30 30h14.15c5.774 20.356 17.389 38.654 33.223 52.603-48.123 22.548-80.702 72.965-84.191 125.18-.743 11.122-.951 28.705 3.538 41.082-.985.844-1.948 1.719-2.87 2.641-9.449 9.444-14.653 21.962-14.653 35.249zm71.49 49.654c-5.671-6.677-12.905-12.083-20.937-15.644-10.151-4.523-19.979-11.181-21.761-12.909-5.67-5.666-8.792-13.16-8.792-21.102s3.122-15.436 8.794-21.104c11.84-11.838 30.856-11.557 42.418.001 6.629 6.628 8.379 10.584 11.866 18.465 3.913 8.842 9.269 16.593 16.367 23.688.019.019.037.038.056.056 7.896 7.895 7.734 20.548 0 28.278-7.804 7.805-20.254 7.742-28.011.271zm240.766-28.796c-1.89 1.502-10.714 7.707-19.885 12.288-8.18 4.078-15.808 9.722-22.068 16.327-7.808 7.712-20.373 7.727-28.202-.102-7.635-7.605-7.971-20.279.014-28.264 7.098-7.134 12.462-14.815 16.431-23.771 3.492-7.88 5.244-11.835 11.849-18.439 11.603-11.607 29.825-11.788 41.621.002 11.675 11.668 11.696 30.252.24 41.959zm-8.933-307.613c0 5.514-4.486 10-10 10h-12.979c.3-3.322.459-6.661.459-10 0-3.338-.159-6.677-.459-10h12.979c5.513 0 10 4.486 10 10zm-132.52-130c14.476 0 26.589 10.307 29.391 23.966-4.634-1.282-9.356-2.258-14.138-2.921-1.487-.207-3.005-.074-4.436.386-12.451 4.005-20.817 15.487-20.817 28.569 0 2.995.448 5.922 1.295 8.703-12.428-3.791-21.295-15.278-21.295-28.703 0-16.542 13.458-30 30-30zm-130 130c0-5.514 4.486-10.01 10-10.01h10.46c-.301 3.319-.46 6.668-.46 10.01 0 3.339.159 6.677.459 10h-10.459c-5.514 0-10-4.486-10-10zm41.802 18.019c-.003-.016-.006-.032-.009-.048-1.19-5.881-1.793-11.927-1.793-17.971 0-6.071.608-12.126 1.811-18.014 5.153-25.429 21.034-47.205 43.286-60.005 8.242 16.772 25.539 28.019 44.903 28.019 4.998 0 9.947-.74 14.709-2.198 3.979-1.219 6.787-4.773 7.051-8.926.265-4.153-2.07-8.035-5.862-9.749-3.583-1.619-5.897-5.201-5.897-9.127 0-3.692 1.996-7.001 5.125-8.742 35.964 6.076 65.577 33.799 73.073 70.723.003.016.005.032.009.048 1.19 5.881 1.793 11.927 1.793 17.971 0 6.042-.603 12.086-1.792 17.963-.004.021-.008.043-.012.065-8.405 41.378-44.977 71.972-88.197 71.972-42.971 0-79.737-30.339-88.198-71.981zm-48.664 191.097c3.388-50.711 38.298-97.441 83.677-112.819 16.212 8.971 34.497 13.702 53.186 13.702 19.061 0 37.674-4.914 54.131-14.231 47.201 15.131 83.47 63.409 85.054 114.107.422 13.353-1.266 23.62-3.256 29.538-9.406-3.153-19.521-3.361-29.008-.638-3.442-6.978-9.516-12.431-16.92-15.057v-57.72c0-5.523-4.478-10-10-10s-10 4.477-10 10v56h-25c-5.522 0-10 4.477-10 10s4.478 10 10 10h35c4.138 0 7.698 2.527 9.216 6.12-1.303 1.069-2.568 2.19-3.768 3.389-9.238 9.238-12.07 15.632-15.991 24.479-3.985 8.993-8.502 13.601-12.588 18.034-9.213 9.408-13.075 22.49-10.781 35.088-14.04 8.452-29.838 12.89-46.088 12.89-16.246 0-32.044-4.435-46.088-12.884 2.317-12.712-1.616-25.942-11.096-35.423-5.342-5.333-9.349-11.113-12.251-17.67-4.183-9.454-7.194-15.696-16.014-24.515-1.197-1.197-2.463-2.317-3.768-3.383 1.518-3.594 5.08-6.126 9.217-6.126h35c5.522 0 10-4.477 10-10s-4.478-10-10-10h-25v-56c0-5.523-4.478-10-10-10s-10 4.477-10 10v57.723c-7.428 2.638-13.524 8.122-16.96 15.137-9.26-2.639-19.168-2.575-28.4.206-1.374-5.918-2.426-16.156-1.504-29.947z"/><circle cx="342" cy="382.003" r="10"/></g></svg>