<?xml version="1.0"?>
<svg fill="#f00" xmlns="http://www.w3.org/2000/svg" viewBox="0 0 64 64" width="512" height="512"><g id="Outline"><g><path d="M13.937,60H5a1,1,0,0,1-1-1,.987.987,0,0,1,.523-.869A1,1,0,0,0,4.7,56.5,1.971,1.971,0,0,1,4,55a1.995,1.995,0,0,1,3.979-.2A.99.99,0,0,1,8,55a1,1,0,0,0,1,1,1.953,1.953,0,0,1,1.105.345,1,1,0,1,0,1.125-1.654,3.972,3.972,0,0,0-1.346-.59A3.992,3.992,0,0,0,2,55a3.958,3.958,0,0,0,.642,2.156A2.992,2.992,0,0,0,5,62h8.937a1,1,0,0,0,0-2Z"/><path d="M38.447,60.105l-2.9-1.449A8.183,8.183,0,0,1,31,51.3a9.384,9.384,0,0,0-4-7.72V40a3,3,0,0,0-3-3H21V5a1,1,0,0,1,2,0V34a1,1,0,0,0,2,0V5a3,3,0,0,0-6,0V37.184A3,3,0,0,0,17,40v3.541A8.991,8.991,0,0,0,14.148,46.6a9.452,9.452,0,0,0,.469,9.81,1,1,0,1,0,1.7-1.05A7.762,7.762,0,0,1,15.306,49H19v2a1,1,0,0,0,2,0V49h2v2a1,1,0,0,0,2,0V49h3.638A7.539,7.539,0,0,1,29,51.3a10.157,10.157,0,0,0,4.749,8.629,10.021,10.021,0,0,1-7.43-4.567,1,1,0,0,0-1.7,1.05,11.457,11.457,0,0,0,3.219,3.381,9.947,9.947,0,0,1-6.517-4.431,1,1,0,0,0-1.7,1.05,11.421,11.421,0,0,0,3.232,3.376,10.277,10.277,0,0,1-4.24-1.9,1,1,0,0,0-1.218,1.587A12.442,12.442,0,0,0,24.937,62H38a1,1,0,0,0,.447-1.9ZM19,40a1,1,0,0,1,1-1h4a1,1,0,0,1,1,1v2.543A8.678,8.678,0,0,0,22.049,42H22a8.961,8.961,0,0,0-3,.536Zm-2.73,7A7,7,0,0,1,22,44h.038a6.906,6.906,0,0,1,5.6,3Z"/><path d="M58.893,56h-.442A4,4,0,0,0,55,54a3.919,3.919,0,0,0-1.612.346,3.038,3.038,0,0,0-2.808.023l.141-1.613c.138.005.282.026.418.026q.382,0,.751-.03c2.1-.17,3.626-1.055,4.286-2.489,1.16-2.521-.741-5.836-4.538-8.057L52,38.086a.985.985,0,0,0-.057-.421A3.756,3.756,0,0,0,52,37a3.993,3.993,0,0,0-2.037-3.472,3.009,3.009,0,0,0-2.056-2.388,3.991,3.991,0,0,0-7.379-1.1A3.871,3.871,0,0,0,40,30a4,4,0,0,0-3.892,3.108c-.094.022-.183.057-.274.086A3.961,3.961,0,0,0,33,32a3.989,3.989,0,0,0-2.965,6.669c.014.015.034.02.048.035l1.751,13.425a1,1,0,0,0,.991.871.97.97,0,0,0,.131-.008,1,1,0,0,0,.861-1.121L32.139,39h1.417a3.96,3.96,0,0,0,6.1.978,3,3,0,1,0,0-5.956,3.965,3.965,0,0,0-1.463-.823,2.009,2.009,0,0,1,2.553-1.052,1,1,0,0,0,1.338-.666A1.994,1.994,0,0,1,46,32a1,1,0,0,0,1,1,1,1,0,0,1,1,.979l-.014.118a1,1,0,0,0,.668,1.026A2,2,0,0,1,50,37H45.723a1,1,0,0,0,0,2h4.186l-.319,3.672v0l-.68,7.816a12.68,12.68,0,0,1-2.374-.812c-3.747-1.725-5.588-4.6-4.9-6.107a1,1,0,0,0-1.817-.836c-1.29,2.8,1.291,6.649,5.876,8.759A14.54,14.54,0,0,0,48.735,52.5l-.288,3.323A2.727,2.727,0,0,1,47.51,56H47a4,4,0,0,0-4,4v1a1,1,0,0,0,1,1h5a1,1,0,0,0,0-2H45a2,2,0,0,1,2-2h.51a5.344,5.344,0,0,0,3.784-1.708.985.985,0,0,1,1.369-.03,1,1,0,0,0,1.231.083A1.971,1.971,0,0,1,55,56a2,2,0,0,1,1.874,1.335,1,1,0,0,0,.942.665h1.077a1.083,1.083,0,0,1,1.092.825A1,1,0,0,1,59,60H53a1,1,0,0,0,0,2h6a3,3,0,0,0,2.96-3.5A3.084,3.084,0,0,0,58.893,56ZM31.284,37A1.9,1.9,0,0,1,31,36a2,2,0,0,1,2-2,1.967,1.967,0,0,1,1.054.317A3.971,3.971,0,0,0,33,37Zm8.378-.934A.984.984,0,0,1,40,36a1,1,0,0,1,0,2,.984.984,0,0,1-.338-.066,1,1,0,0,0-1.116.313,1.99,1.99,0,1,1-2.49-3l.008,0,0,0a1.949,1.949,0,0,1,2.478.512A1,1,0,0,0,39.662,36.066Zm14.7,13.361a3,3,0,0,1-2.631,1.332,7.733,7.733,0,0,1-.834,0l.548-6.3C53.7,46.039,54.971,48.1,54.359,49.427Z"/><path d="M53,31a3,3,0,1,0-3-3A3,3,0,0,0,53,31Zm0-4a1,1,0,1,1-1,1A1,1,0,0,1,53,27Z"/><path d="M59,38a3,3,0,1,0-3-3A3,3,0,0,0,59,38Zm0-4a1,1,0,1,1-1,1A1,1,0,0,1,59,34Z"/><path d="M5,46a3,3,0,1,0,3-3A3,3,0,0,0,5,46Zm4,0a1,1,0,1,1-1-1A1,1,0,0,1,9,46Z"/><path d="M5,41a3,3,0,1,0-3-3A3,3,0,0,0,5,41Zm0-4a1,1,0,1,1-1,1A1,1,0,0,1,5,37Z"/></g></g></svg>
