<?xml version="1.0" standalone="no"?>
<!DOCTYPE svg PUBLIC "-//W3C//DTD SVG 20010904//EN"
 "http://www.w3.org/TR/2001/REC-SVG-20010904/DTD/svg10.dtd">
<svg version="1.0" xmlns="http://www.w3.org/2000/svg"
 width="200.000000pt" height="200.000000pt" viewBox="0 0 200.000000 200.000000"
 preserveAspectRatio="xMidYMid meet">

<g transform="translate(0.000000,200.000000) scale(0.100000,-0.100000)"
fill="#000000" stroke="none">
<path d="M1602 1757 c-6 -7 -13 -61 -14 -126 l-3 -112 -50 88 c-37 64 -55 88
-70 88 -36 0 -27 -34 41 -157 37 -67 63 -123 58 -125 -64 -22 -119 -92 -136
-176 -11 -51 -7 -93 31 -394 57 -444 77 -536 129 -595 47 -54 102 17 136 174
21 100 96 682 96 749 0 67 -13 116 -43 160 -20 30 -71 72 -98 81 -6 2 22 61
61 132 65 115 71 130 57 143 -25 25 -42 10 -95 -89 l-51 -93 -3 130 c-3 109
-6 130 -19 133 -9 1 -21 -3 -27 -11z m84 -416 c43 -26 74 -94 74 -163 0 -63
-84 -713 -100 -773 -16 -57 -31 -95 -40 -95 -10 0 -38 91 -50 165 -23 133 -23
125 -1 125 25 0 52 26 45 45 -3 7 -20 15 -37 17 -34 3 -31 -3 -50 121 -6 37
-5 37 28 37 38 0 67 23 59 45 -4 10 -21 15 -49 15 -24 0 -46 3 -48 8 -3 4 -8
37 -12 75 l-7 67 50 0 c57 0 83 19 62 45 -8 10 -31 15 -65 15 -60 0 -65 6 -65
73 0 68 19 119 60 159 31 31 45 38 76 38 22 0 53 -9 70 -19z"/>
<path d="M612 1585 c-56 -17 -115 -58 -143 -100 -19 -27 -31 -34 -66 -38 -89
-10 -175 -99 -188 -196 -5 -38 -14 -56 -42 -82 -112 -107 -94 -288 37 -366 30
-18 65 -33 79 -33 17 0 53 -29 127 -102 l103 -101 3 -81 3 -81 159 -3 c108 -2
163 1 172 9 10 8 14 34 14 83 l0 71 103 103 c60 60 111 102 122 102 68 1 163
86 185 166 24 85 -8 188 -75 241 -27 22 -35 35 -35 61 0 94 -108 211 -197 212
-13 0 -45 24 -80 58 -85 85 -177 110 -281 77z m193 -80 c24 -14 58 -46 75 -70
27 -39 36 -45 66 -45 89 0 155 -64 162 -158 4 -53 7 -60 52 -100 77 -68 90
-151 37 -231 -31 -47 -80 -71 -143 -71 -55 0 -122 34 -143 74 -21 38 -33 38
-90 -2 -49 -34 -58 -37 -124 -37 -74 1 -100 10 -160 57 l-28 23 -37 -44 c-42
-52 -84 -71 -150 -71 -108 0 -180 97 -158 214 7 35 52 90 91 112 14 8 19 20
17 47 -6 93 75 187 163 187 23 0 41 7 53 21 52 62 102 106 133 117 52 17 133
7 184 -23z m34 -701 c-24 -24 -44 -44 -46 -44 -2 0 -3 12 -3 28 0 21 8 32 38
48 55 30 60 17 11 -32z m-278 29 c34 -16 39 -22 39 -53 l0 -34 -45 44 c-63 62
-61 74 6 43z m-21 -108 c98 -99 114 -98 118 3 l3 72 34 0 34 0 3 -72 c4 -101
19 -102 118 -3 73 73 78 76 103 64 15 -7 27 -15 27 -18 0 -4 -38 -44 -85 -91
l-85 -85 0 -67 0 -68 -115 0 -115 0 0 62 0 63 -91 91 -92 92 29 16 c16 8 31
15 34 16 3 0 39 -34 80 -75z"/>
<path d="M626 1366 c-21 -8 -55 -30 -75 -49 -20 -18 -58 -42 -84 -51 -70 -26
-109 -82 -105 -151 3 -46 5 -50 28 -50 22 0 26 5 30 48 7 60 41 96 97 104 31
4 44 12 58 35 10 18 36 39 62 50 64 28 107 18 160 -38 24 -24 52 -44 63 -44
31 0 78 -27 92 -53 6 -12 14 -40 17 -62 5 -35 9 -40 31 -40 20 0 26 6 28 30 9
75 -58 167 -132 180 -21 4 -41 17 -51 31 -36 55 -149 86 -219 60z"/>
</g>
</svg>
