<?xml version="1.0" standalone="no"?>
<!DOCTYPE svg PUBLIC "-//W3C//DTD SVG 20010904//EN"
 "http://www.w3.org/TR/2001/REC-SVG-20010904/DTD/svg10.dtd">
<svg version="1.0" xmlns="http://www.w3.org/2000/svg"
 width="512.000000pt" height="512.000000pt" viewBox="0 0 512.000000 512.000000"
 preserveAspectRatio="xMidYMid meet">

<g transform="translate(0.000000,512.000000) scale(0.100000,-0.100000)"
fill="#000000" stroke="none">
<path d="M3799 4015 c-71 -26 -116 -54 -161 -102 -73 -79 -108 -165 -108 -269
0 -32 -5 -54 -12 -57 -7 -3 -104 -44 -216 -91 l-203 -86 -37 19 c-109 55 -239
65 -378 29 l-84 -22 -108 37 c-145 49 -245 73 -385 92 -299 39 -627 1 -900
-105 -43 -16 -82 -30 -88 -30 -5 0 -9 48 -9 108 0 60 -3 170 -7 246 -6 124 -8
139 -29 161 -25 27 -79 34 -114 15 -11 -6 -39 -52 -64 -103 -98 -205 -227
-326 -439 -414 -68 -28 -104 -50 -138 -84 -57 -56 -74 -87 -90 -164 -17 -88
-1 -151 71 -271 l59 -98 -33 -45 c-101 -140 -202 -345 -256 -521 -55 -179 -65
-236 -64 -375 1 -111 5 -143 28 -220 77 -256 270 -453 531 -543 l80 -27 1190
-3 c1066 -2 1198 -1 1263 13 301 67 534 292 611 590 13 49 28 83 39 89 23 12
136 126 150 150 9 18 35 22 228 42 121 13 227 23 236 23 11 1 27 -17 42 -46
33 -66 99 -128 176 -166 59 -29 73 -32 160 -32 86 0 101 3 162 33 198 96 274
340 166 534 -20 36 -20 37 -3 102 48 177 -42 364 -213 444 -49 23 -70 27 -152
27 -86 0 -101 -3 -160 -31 -104 -50 -179 -140 -209 -249 l-11 -41 -234 -23
-235 -24 -49 44 c-81 73 -191 118 -289 119 -41 0 -44 2 -95 76 -29 42 -59 85
-67 96 -8 10 -12 20 -10 22 2 2 96 43 208 90 l204 86 41 -38 c57 -52 101 -77
170 -97 170 -49 362 39 443 203 25 51 28 67 28 162 0 93 -3 112 -27 162 -14
31 -47 78 -72 103 -44 44 -46 48 -46 103 0 159 -114 312 -267 357 -62 18 -175
19 -224 0z m199 -186 c84 -41 127 -138 103 -234 -15 -61 1 -96 63 -138 151
-99 117 -311 -57 -358 -81 -22 -178 24 -218 103 -19 37 -20 52 -14 133 l7 92
-37 29 c-85 67 -113 102 -124 153 -6 28 -9 56 -7 63 3 7 7 25 10 40 9 39 64
98 111 119 53 25 109 24 163 -2z m-3068 -387 l0 -108 -96 -63 c-106 -69 -197
-143 -290 -233 l-61 -60 -37 58 c-28 46 -36 69 -36 106 0 64 31 96 138 141 46
20 108 50 139 69 66 39 198 150 213 178 22 41 30 18 30 -88z m2715 -62 c34
-35 38 -45 40 -94 l1 -56 -70 -29 c-39 -16 -120 -50 -179 -75 -73 -30 -109
-41 -111 -33 -14 47 -42 117 -58 145 -11 18 -19 34 -17 36 9 7 335 144 344
145 6 1 28 -17 50 -39z m-1500 -6 c415 -70 805 -298 1051 -616 l45 -58 -413 6
-413 6 -82 -24 c-452 -135 -587 -706 -243 -1032 76 -71 181 -127 285 -152 121
-28 201 -17 692 95 244 56 445 101 448 101 10 0 -29 -86 -63 -140 -54 -86
-149 -171 -244 -219 -149 -75 -90 -72 -1376 -69 l-1147 3 -65 22 c-195 67
-345 218 -406 407 -38 119 -37 241 4 404 108 425 365 783 732 1021 216 139
485 233 751 261 109 11 330 4 444 -16z m825 -106 c54 -23 114 -79 141 -131
l20 -38 -73 59 c-40 32 -99 76 -130 97 -32 21 -58 40 -58 42 0 6 54 -9 100
-29z m1805 -567 c52 -23 101 -80 115 -132 13 -49 2 -109 -30 -161 -32 -54 -26
-86 31 -158 65 -82 56 -194 -20 -263 -99 -90 -246 -63 -305 55 -34 67 -33 109
4 186 17 35 30 72 30 82 0 10 -18 42 -40 71 -47 62 -64 117 -55 168 24 130
156 204 270 152z m-1693 -182 c528 -12 524 -12 618 -108 43 -43 60 -70 74
-115 47 -149 -25 -314 -166 -376 -25 -11 -266 -70 -535 -131 -525 -120 -584
-128 -690 -96 -116 35 -211 119 -267 237 -29 60 -31 73 -31 170 0 89 4 113 25
160 58 132 158 220 290 254 68 18 122 19 682 5z m1284 -180 c25 -45 25 -46 10
-101 l-16 -54 -168 -17 c-241 -25 -220 -30 -221 51 0 37 -5 82 -10 100 -5 17
-9 32 -8 33 8 4 330 37 355 35 29 -1 37 -7 58 -47z"/>
<path d="M660 2671 c-48 -16 -105 -49 -137 -81 -33 -33 -223 -333 -242 -383
-13 -34 7 -90 37 -106 34 -18 79 -13 105 12 13 12 70 97 126 188 81 134 108
170 135 183 65 31 91 20 241 -99 73 -59 217 -133 298 -155 26 -7 50 -16 52
-20 6 -10 -219 -130 -245 -130 -12 0 -40 13 -63 30 -97 69 -224 55 -306 -32
-38 -41 -93 -202 -89 -260 4 -49 40 -82 89 -80 48 1 75 36 104 131 14 47 31
88 38 93 20 13 54 9 68 -8 29 -35 93 -58 159 -59 l65 0 293 159 c161 87 299
168 307 179 34 48 0 137 -52 137 -182 3 -268 9 -328 25 -129 33 -229 87 -345
186 -81 69 -132 92 -215 95 -38 2 -81 0 -95 -5z"/>
</g>
</svg>
