<?xml version="1.0" standalone="no"?>
<!DOCTYPE svg PUBLIC "-//W3C//DTD SVG 20010904//EN"
 "http://www.w3.org/TR/2001/REC-SVG-20010904/DTD/svg10.dtd">
<svg version="1.0" xmlns="http://www.w3.org/2000/svg"
 width="657.000000pt" height="380.000000pt" viewBox="0 0 657.000000 380.000000"
 preserveAspectRatio="xMidYMid meet">

<g transform="translate(0.000000,380.000000) scale(0.100000,-0.100000)"
fill="#000000" stroke="none">
<path d="M2730 2760 c-160 -29 -278 -68 -470 -158 -54 -25 -148 -80 -223 -131
-38 -25 -79 -53 -91 -61 -121 -80 -394 -335 -487 -457 l-41 -52 20 -28 c37
-51 245 -248 347 -329 97 -77 149 -113 265 -185 30 -19 64 -40 75 -47 11 -6
31 -17 45 -23 13 -5 61 -28 105 -49 340 -164 716 -203 1055 -111 281 76 529
206 799 419 51 41 119 98 150 128 31 29 62 54 69 54 27 0 233 -166 372 -302
44 -42 128 -132 219 -232 l44 -49 83 89 c46 49 83 91 84 94 0 7 -142 161 -230
249 -74 74 -201 186 -329 289 -23 18 -41 36 -41 41 0 4 39 37 88 74 48 36 103
81 124 99 142 128 180 166 272 268 56 63 106 120 109 127 5 7 -16 37 -52 75
-32 35 -69 75 -82 91 l-24 27 -44 -52 c-134 -163 -350 -362 -574 -532 -16 -12
-26 -5 -95 62 -90 88 -221 199 -314 265 -63 45 -274 177 -282 177 -3 0 -42 17
-88 38 -121 57 -153 69 -253 96 -213 58 -418 71 -605 36z m427 -234 c190 -34
407 -130 613 -270 76 -52 205 -152 240 -186 9 -8 45 -42 81 -75 101 -95 100
-83 11 -162 -273 -238 -496 -371 -757 -453 -160 -51 -247 -65 -390 -65 -144 0
-230 14 -390 65 -108 34 -264 103 -337 148 -15 9 -56 34 -91 55 -116 70 -375
276 -396 316 -8 14 9 34 96 112 58 52 113 101 122 109 9 9 34 29 56 45 22 16
42 32 45 35 12 15 211 141 275 174 242 125 386 164 605 165 76 1 171 -5 217
-13z"/>
<path d="M2174 2154 c-12 -3 -34 -18 -50 -35 -24 -25 -28 -38 -28 -85 -1 -52
2 -58 36 -90 32 -29 45 -34 87 -34 90 0 143 73 118 162 -7 23 -24 50 -38 60
-26 20 -87 30 -125 22z"/>
</g>
</svg>
